<?xml version="1.0" encoding="UTF-8" standalone="no"?>
<!DOCTYPE svg PUBLIC "-//W3C//DTD SVG 1.1//EN"
 "http://www.w3.org/Graphics/SVG/1.1/DTD/svg11.dtd">
<!-- Generated by graphviz version 2.42.4 (0)
 -->
<!-- Title: G Pages: 1 -->
<svg width="526pt" height="441pt"
 viewBox="0.00 0.00 526.00 440.80" xmlns="http://www.w3.org/2000/svg" xmlns:xlink="http://www.w3.org/1999/xlink">
<g id="graph0" class="graph" transform="scale(1.02 1.02) rotate(0) translate(18 414)">
<title>G</title>
<polygon fill="white" stroke="transparent" points="-18,18 -18,-414 497.5,-414 497.5,18 -18,18"/>
<!-- a -->
<g id="node1" class="node">
<title>a</title>
<path fill="#e0f2fe" stroke="#334155" stroke-width="1.2" d="M122,-36C122,-36 63,-36 63,-36 57,-36 51,-30 51,-24 51,-24 51,-12 51,-12 51,-6 57,0 63,0 63,0 122,0 122,0 128,0 134,-6 134,-12 134,-12 134,-24 134,-24 134,-30 128,-36 122,-36"/>
<text text-anchor="middle" x="92.5" y="-21.2" font-family="Arial" font-size="11.00">Implemented</text>
<text text-anchor="middle" x="92.5" y="-9.2" font-family="Arial" font-size="11.00">source exists</text>
</g>
<!-- b -->
<g id="node2" class="node">
<title>b</title>
<path fill="#dbeafe" stroke="#334155" stroke-width="1.2" d="M169,-108C169,-108 16,-108 16,-108 10,-108 4,-102 4,-96 4,-96 4,-84 4,-84 4,-78 10,-72 16,-72 16,-72 169,-72 169,-72 175,-72 181,-78 181,-84 181,-84 181,-96 181,-96 181,-102 175,-108 169,-108"/>
<text text-anchor="middle" x="92.5" y="-93.2" font-family="Arial" font-size="11.00">Statically verified</text>
<text text-anchor="middle" x="92.5" y="-81.2" font-family="Arial" font-size="11.00">contracts/configuration inspected</text>
</g>
<!-- a&#45;&gt;b -->
<g id="edge1" class="edge">
<title>a&#45;&gt;b</title>
<path fill="none" stroke="#475569" stroke-width="1.1" d="M92.5,-36.17C92.5,-36.17 92.5,-64.09 92.5,-64.09"/>
<polygon fill="#475569" stroke="#475569" stroke-width="1.1" points="89.88,-64.09 92.5,-71.59 95.13,-64.09 89.88,-64.09"/>
</g>
<!-- c -->
<g id="node3" class="node">
<title>c</title>
<path fill="#dcfce7" stroke="#334155" stroke-width="1.2" d="M163,-180C163,-180 22,-180 22,-180 16,-180 10,-174 10,-168 10,-168 10,-156 10,-156 10,-150 16,-144 22,-144 22,-144 163,-144 163,-144 169,-144 175,-150 175,-156 175,-156 175,-168 175,-168 175,-174 169,-180 163,-180"/>
<text text-anchor="middle" x="92.5" y="-165.2" font-family="Arial" font-size="11.00">Executed</text>
<text text-anchor="middle" x="92.5" y="-153.2" font-family="Arial" font-size="11.00">identified environment and run</text>
</g>
<!-- b&#45;&gt;c -->
<g id="edge2" class="edge">
<title>b&#45;&gt;c</title>
<path fill="none" stroke="#475569" stroke-width="1.1" d="M92.5,-108.17C92.5,-108.17 92.5,-136.09 92.5,-136.09"/>
<polygon fill="#475569" stroke="#475569" stroke-width="1.1" points="89.88,-136.09 92.5,-143.59 95.13,-136.09 89.88,-136.09"/>
</g>
<!-- d -->
<g id="node4" class="node">
<title>d</title>
<path fill="#d1fae5" stroke="#334155" stroke-width="1.2" d="M173,-252C173,-252 12,-252 12,-252 6,-252 0,-246 0,-240 0,-240 0,-228 0,-228 0,-222 6,-216 12,-216 12,-216 173,-216 173,-216 179,-216 185,-222 185,-228 185,-228 185,-240 185,-240 185,-246 179,-252 173,-252"/>
<text text-anchor="middle" x="92.5" y="-237.2" font-family="Arial" font-size="11.00">Reproduced</text>
<text text-anchor="middle" x="92.5" y="-225.2" font-family="Arial" font-size="11.00">repeatable procedure and artifacts</text>
</g>
<!-- c&#45;&gt;d -->
<g id="edge3" class="edge">
<title>c&#45;&gt;d</title>
<path fill="none" stroke="#475569" stroke-width="1.1" d="M92.5,-180.17C92.5,-180.17 92.5,-208.09 92.5,-208.09"/>
<polygon fill="#475569" stroke="#475569" stroke-width="1.1" points="89.88,-208.09 92.5,-215.59 95.13,-208.09 89.88,-208.09"/>
</g>
<!-- e -->
<g id="node5" class="node">
<title>e</title>
<path fill="#fef3c7" stroke="#334155" stroke-width="1.2" d="M307,-324C307,-324 132,-324 132,-324 126,-324 120,-318 120,-312 120,-312 120,-300 120,-300 120,-294 126,-288 132,-288 132,-288 307,-288 307,-288 313,-288 319,-294 319,-300 319,-300 319,-312 319,-312 319,-318 313,-324 307,-324"/>
<text text-anchor="middle" x="219.5" y="-309.2" font-family="Arial" font-size="11.00">Validated</text>
<text text-anchor="middle" x="219.5" y="-297.2" font-family="Arial" font-size="11.00">method and intended claim evaluated</text>
</g>
<!-- d&#45;&gt;e -->
<g id="edge4" class="edge">
<title>d&#45;&gt;e</title>
<path fill="none" stroke="#475569" stroke-width="1.1" d="M152.5,-252.17C152.5,-252.17 152.5,-280.09 152.5,-280.09"/>
<polygon fill="#475569" stroke="#475569" stroke-width="1.1" points="149.87,-280.09 152.5,-287.59 155.12,-280.09 149.87,-280.09"/>
</g>
<!-- f -->
<g id="node6" class="node">
<title>f</title>
<path fill="#fde68a" stroke="#334155" stroke-width="1.2" d="M287,-396C287,-396 152,-396 152,-396 146,-396 140,-390 140,-384 140,-384 140,-372 140,-372 140,-366 146,-360 152,-360 152,-360 287,-360 287,-360 293,-360 299,-366 299,-372 299,-372 299,-384 299,-384 299,-390 293,-396 287,-396"/>
<text text-anchor="middle" x="219.5" y="-381.2" font-family="Arial" font-size="11.00">Authorised</text>
<text text-anchor="middle" x="219.5" y="-369.2" font-family="Arial" font-size="11.00">external operational authority</text>
</g>
<!-- e&#45;&gt;f -->
<g id="edge5" class="edge">
<title>e&#45;&gt;f</title>
<path fill="none" stroke="#475569" stroke-width="1.1" d="M219.5,-324.17C219.5,-324.17 219.5,-352.09 219.5,-352.09"/>
<polygon fill="#475569" stroke="#475569" stroke-width="1.1" points="216.88,-352.09 219.5,-359.59 222.13,-352.09 216.88,-352.09"/>
</g>
<!-- limit -->
<g id="node7" class="node">
<title>limit</title>
<polygon fill="#fee2e2" stroke="#334155" stroke-width="1.2" points="473.5,-252 207.5,-252 207.5,-216 479.5,-216 479.5,-246 473.5,-252"/>
<polyline fill="none" stroke="#334155" stroke-width="1.2" points="473.5,-252 473.5,-246 "/>
<polyline fill="none" stroke="#334155" stroke-width="1.2" points="479.5,-246 473.5,-246 "/>
<text text-anchor="middle" x="343.5" y="-237.2" font-family="Arial" font-size="11.00">Current NatureProtector evidence is heterogeneous;</text>
<text text-anchor="middle" x="343.5" y="-225.2" font-family="Arial" font-size="11.00">no automatic promotion between levels</text>
</g>
<!-- limit&#45;&gt;e -->
<g id="edge6" class="edge">
<title>limit&#45;&gt;e</title>
<path fill="none" stroke="#b91c1c" stroke-width="1.1" stroke-dasharray="5,2" d="M263.25,-252.17C263.25,-252.17 263.25,-280.09 263.25,-280.09"/>
<polygon fill="#b91c1c" stroke="#b91c1c" stroke-width="1.1" points="260.63,-280.09 263.25,-287.59 265.88,-280.09 260.63,-280.09"/>
</g>
</g>
</svg>
