<?xml version="1.0" encoding="UTF-8" standalone="no"?>
<!DOCTYPE svg PUBLIC "-//W3C//DTD SVG 1.1//EN"
 "http://www.w3.org/Graphics/SVG/1.1/DTD/svg11.dtd">
<!-- Generated by graphviz version 2.42.4 (0)
 -->
<!-- Title: G Pages: 1 -->
<svg width="946pt" height="540pt"
 viewBox="0.00 0.00 945.69 540.00" xmlns="http://www.w3.org/2000/svg" xmlns:xlink="http://www.w3.org/1999/xlink">
<g id="graph0" class="graph" transform="scale(0.51 0.51) rotate(0) translate(18 1038.38)">
<title>G</title>
<polygon fill="white" stroke="transparent" points="-18,18 -18,-1038.38 1832,-1038.38 1832,18 -18,18"/>
<!-- code -->
<g id="node1" class="node">
<title>code</title>
<path fill="#dbeafe" stroke="#334155" stroke-width="1.2" d="M116,-404.59C116,-404.59 12,-404.59 12,-404.59 6,-404.59 0,-398.59 0,-392.59 0,-392.59 0,-380.59 0,-380.59 0,-374.59 6,-368.59 12,-368.59 12,-368.59 116,-368.59 116,-368.59 122,-368.59 128,-374.59 128,-380.59 128,-380.59 128,-392.59 128,-392.59 128,-398.59 122,-404.59 116,-404.59"/>
<text text-anchor="middle" x="64" y="-383.79" font-family="Arial" font-size="11.00">Commit / protected ref</text>
</g>
<!-- validate -->
<g id="node2" class="node">
<title>validate</title>
<path fill="#dcfce7" stroke="#334155" stroke-width="1.2" d="M269,-404.59C269,-404.59 191,-404.59 191,-404.59 185,-404.59 179,-398.59 179,-392.59 179,-392.59 179,-380.59 179,-380.59 179,-374.59 185,-368.59 191,-368.59 191,-368.59 269,-368.59 269,-368.59 275,-368.59 281,-374.59 281,-380.59 281,-380.59 281,-392.59 281,-392.59 281,-398.59 275,-404.59 269,-404.59"/>
<text text-anchor="middle" x="230" y="-383.79" font-family="Arial" font-size="11.00">Validate + qualify</text>
</g>
<!-- code&#45;&gt;validate -->
<g id="edge1" class="edge">
<title>code&#45;&gt;validate</title>
<path fill="none" stroke="#475569" stroke-width="1.1" d="M128.18,-386.59C128.18,-386.59 171.35,-386.59 171.35,-386.59"/>
<polygon fill="#475569" stroke="#475569" stroke-width="1.1" points="171.35,-389.22 178.85,-386.59 171.35,-383.97 171.35,-389.22"/>
</g>
<!-- release -->
<g id="node3" class="node">
<title>release</title>
<polygon fill="#f3e8ff" stroke="#334155" stroke-width="1.2" points="586.5,-404.59 583.5,-408.59 562.5,-408.59 559.5,-404.59 331.5,-404.59 331.5,-368.59 586.5,-368.59 586.5,-404.59"/>
<text text-anchor="middle" x="459" y="-389.79" font-family="Arial" font-size="11.00">Immutable release</text>
<text text-anchor="middle" x="459" y="-377.79" font-family="Arial" font-size="11.00">images, manifest, checksums, SBOM, attestation</text>
</g>
<!-- validate&#45;&gt;release -->
<g id="edge2" class="edge">
<title>validate&#45;&gt;release</title>
<path fill="none" stroke="#475569" stroke-width="1.1" d="M281.11,-386.59C281.11,-386.59 323.84,-386.59 323.84,-386.59"/>
<polygon fill="#475569" stroke="#475569" stroke-width="1.1" points="323.84,-389.22 331.34,-386.59 323.84,-383.97 323.84,-389.22"/>
</g>
<!-- staging -->
<g id="node4" class="node">
<title>staging</title>
<polygon fill="#e0f2fe" stroke="#334155" stroke-width="1.2" points="758,-404.59 642,-404.59 638,-400.59 638,-368.59 754,-368.59 758,-372.59 758,-404.59"/>
<polyline fill="none" stroke="#334155" stroke-width="1.2" points="754,-400.59 638,-400.59 "/>
<polyline fill="none" stroke="#334155" stroke-width="1.2" points="754,-400.59 754,-368.59 "/>
<polyline fill="none" stroke="#334155" stroke-width="1.2" points="754,-400.59 758,-404.59 "/>
<text text-anchor="middle" x="698" y="-389.79" font-family="Arial" font-size="11.00">STAGING</text>
<text text-anchor="middle" x="698" y="-377.79" font-family="Arial" font-size="11.00">isolated GCP project</text>
</g>
<!-- release&#45;&gt;staging -->
<g id="edge3" class="edge">
<title>release&#45;&gt;staging</title>
<path fill="none" stroke="#475569" stroke-width="1.1" d="M586.55,-386.59C586.55,-386.59 630.43,-386.59 630.43,-386.59"/>
<polygon fill="#475569" stroke="#475569" stroke-width="1.1" points="630.43,-389.22 637.93,-386.59 630.43,-383.97 630.43,-389.22"/>
</g>
<!-- smoke -->
<g id="node5" class="node">
<title>smoke</title>
<path fill="#dcfce7" stroke="#334155" stroke-width="1.2" d="M1027.5,-844.59C1027.5,-844.59 820.5,-844.59 820.5,-844.59 814.5,-844.59 808.5,-838.59 808.5,-832.59 808.5,-832.59 808.5,-820.59 808.5,-820.59 808.5,-814.59 814.5,-808.59 820.5,-808.59 820.5,-808.59 1027.5,-808.59 1027.5,-808.59 1033.5,-808.59 1039.5,-814.59 1039.5,-820.59 1039.5,-820.59 1039.5,-832.59 1039.5,-832.59 1039.5,-838.59 1033.5,-844.59 1027.5,-844.59"/>
<text text-anchor="middle" x="924" y="-823.79" font-family="Arial" font-size="11.00">Smoke + readiness + observability evidence</text>
</g>
<!-- staging&#45;&gt;smoke -->
<g id="edge4" class="edge">
<title>staging&#45;&gt;smoke</title>
<path fill="none" stroke="#475569" stroke-width="1.1" d="M698,-404.66C698,-487.46 698,-826.59 698,-826.59 698,-826.59 800.85,-826.59 800.85,-826.59"/>
<polygon fill="#475569" stroke="#475569" stroke-width="1.1" points="800.85,-829.22 808.35,-826.59 800.85,-823.97 800.85,-829.22"/>
</g>
<!-- gate -->
<g id="node6" class="node">
<title>gate</title>
<path fill="#fef3c7" stroke="#334155" stroke-width="1.2" d="M1219.38,-419.6C1219.38,-419.6 1102.62,-389.58 1102.62,-389.58 1096.81,-388.09 1096.81,-385.1 1102.62,-383.6 1102.62,-383.6 1219.38,-353.58 1219.38,-353.58 1225.19,-352.09 1236.81,-352.09 1242.62,-353.58 1242.62,-353.58 1359.38,-383.6 1359.38,-383.6 1365.19,-385.1 1365.19,-388.09 1359.38,-389.58 1359.38,-389.58 1242.62,-419.6 1242.62,-419.6 1236.81,-421.1 1225.19,-421.1 1219.38,-419.6"/>
<text text-anchor="middle" x="1231" y="-389.79" font-family="Arial" font-size="11.00">Approval gate</text>
<text text-anchor="middle" x="1231" y="-377.79" font-family="Arial" font-size="11.00">exact release + evidence</text>
</g>
<!-- smoke&#45;&gt;gate -->
<g id="edge5" class="edge">
<title>smoke&#45;&gt;gate</title>
<path fill="none" stroke="#475569" stroke-width="1.1" d="M924,-808.58C924,-729.09 924,-413.59 924,-413.59 924,-413.59 1188.28,-413.59 1188.28,-413.59"/>
<polygon fill="#475569" stroke="#475569" stroke-width="1.1" points="1188.28,-416.22 1195.78,-413.59 1188.28,-410.97 1188.28,-416.22"/>
</g>
<!-- gate&#45;&gt;staging -->
<g id="edge8" class="edge">
<title>gate&#45;&gt;staging</title>
<path fill="none" stroke="#b91c1c" stroke-width="1.1" d="M1090.96,-386.59C1090.96,-386.59 765.52,-386.59 765.52,-386.59"/>
<polygon fill="#b91c1c" stroke="#b91c1c" stroke-width="1.1" points="765.52,-383.97 758.02,-386.59 765.52,-389.22 765.52,-383.97"/>
<text text-anchor="middle" x="924" y="-185.39" font-family="Arial" font-size="9.00">fail / remediate</text>
</g>
<!-- prod -->
<g id="node7" class="node">
<title>prod</title>
<polygon fill="#ede9fe" stroke="#334155" stroke-width="1.2" points="1546.5,-404.59 1425.5,-404.59 1421.5,-400.59 1421.5,-368.59 1542.5,-368.59 1546.5,-372.59 1546.5,-404.59"/>
<polyline fill="none" stroke="#334155" stroke-width="1.2" points="1542.5,-400.59 1421.5,-400.59 "/>
<polyline fill="none" stroke="#334155" stroke-width="1.2" points="1542.5,-400.59 1542.5,-368.59 "/>
<polyline fill="none" stroke="#334155" stroke-width="1.2" points="1542.5,-400.59 1546.5,-404.59 "/>
<text text-anchor="middle" x="1484" y="-389.79" font-family="Arial" font-size="11.00">PRODUCTION</text>
<text text-anchor="middle" x="1484" y="-377.79" font-family="Arial" font-size="11.00">promotion, not rebuild</text>
</g>
<!-- gate&#45;&gt;prod -->
<g id="edge6" class="edge">
<title>gate&#45;&gt;prod</title>
<path fill="none" stroke="#475569" stroke-width="1.1" d="M1371.19,-386.59C1371.19,-386.59 1413.92,-386.59 1413.92,-386.59"/>
<polygon fill="#475569" stroke="#475569" stroke-width="1.1" points="1413.92,-389.22 1421.42,-386.59 1413.92,-383.97 1413.92,-389.22"/>
</g>
<!-- observe -->
<g id="node8" class="node">
<title>observe</title>
<path fill="#fce7f3" stroke="#334155" stroke-width="1.2" d="M1802,-404.59C1802,-404.59 1610,-404.59 1610,-404.59 1604,-404.59 1598,-398.59 1598,-392.59 1598,-392.59 1598,-380.59 1598,-380.59 1598,-374.59 1604,-368.59 1610,-368.59 1610,-368.59 1802,-368.59 1802,-368.59 1808,-368.59 1814,-374.59 1814,-380.59 1814,-380.59 1814,-392.59 1814,-392.59 1814,-398.59 1808,-404.59 1802,-404.59"/>
<text text-anchor="middle" x="1706" y="-383.79" font-family="Arial" font-size="11.00">Post&#45;deploy observation + rollback target</text>
</g>
<!-- prod&#45;&gt;observe -->
<g id="edge7" class="edge">
<title>prod&#45;&gt;observe</title>
<path fill="none" stroke="#475569" stroke-width="1.1" d="M1546.73,-386.59C1546.73,-386.59 1590.12,-386.59 1590.12,-386.59"/>
<polygon fill="#475569" stroke="#475569" stroke-width="1.1" points="1590.12,-389.22 1597.62,-386.59 1590.12,-383.97 1590.12,-389.22"/>
</g>
</g>
</svg>
