<?xml version="1.0" encoding="UTF-8" standalone="no"?>
<!DOCTYPE svg PUBLIC "-//W3C//DTD SVG 1.1//EN"
 "http://www.w3.org/Graphics/SVG/1.1/DTD/svg11.dtd">
<!-- Generated by graphviz version 2.42.4 (0)
 -->
<!-- Title: G Pages: 1 -->
<svg width="526pt" height="510pt"
 viewBox="0.00 0.00 526.00 509.89" xmlns="http://www.w3.org/2000/svg" xmlns:xlink="http://www.w3.org/1999/xlink">
<g id="graph0" class="graph" transform="scale(0.92 0.92) rotate(0) translate(18 536)">
<title>G</title>
<polygon fill="white" stroke="transparent" points="-18,18 -18,-536 553.5,-536 553.5,18 -18,18"/>
<!-- req -->
<g id="node1" class="node">
<title>req</title>
<path fill="#dbeafe" stroke="#334155" stroke-width="1.2" d="M284.5,-518C284.5,-518 85.5,-518 85.5,-518 79.5,-518 73.5,-512 73.5,-506 73.5,-506 73.5,-494 73.5,-494 73.5,-488 79.5,-482 85.5,-482 85.5,-482 284.5,-482 284.5,-482 290.5,-482 296.5,-488 296.5,-494 296.5,-494 296.5,-506 296.5,-506 296.5,-512 290.5,-518 284.5,-518"/>
<text text-anchor="middle" x="185" y="-497.2" font-family="Arial" font-size="11.00">Closed suite/profile + immutable reference</text>
</g>
<!-- wf -->
<g id="node2" class="node">
<title>wf</title>
<path fill="#f3e8ff" stroke="#334155" stroke-width="1.2" d="M236,-445C236,-445 134,-445 134,-445 128,-445 122,-439 122,-433 122,-433 122,-421 122,-421 122,-415 128,-409 134,-409 134,-409 236,-409 236,-409 242,-409 248,-415 248,-421 248,-421 248,-433 248,-433 248,-439 242,-445 236,-445"/>
<text text-anchor="middle" x="185" y="-424.2" font-family="Arial" font-size="11.00">Authoritative workflow</text>
</g>
<!-- req&#45;&gt;wf -->
<g id="edge1" class="edge">
<title>req&#45;&gt;wf</title>
<path fill="none" stroke="#475569" stroke-width="1.1" d="M185,-481.96C185,-481.96 185,-452.59 185,-452.59"/>
<polygon fill="#475569" stroke="#475569" stroke-width="1.1" points="187.63,-452.59 185,-445.09 182.38,-452.59 187.63,-452.59"/>
</g>
<!-- checks -->
<g id="node3" class="node">
<title>checks</title>
<path fill="#dcfce7" stroke="#334155" stroke-width="1.2" d="M315.5,-372C315.5,-372 54.5,-372 54.5,-372 48.5,-372 42.5,-366 42.5,-360 42.5,-360 42.5,-348 42.5,-348 42.5,-342 48.5,-336 54.5,-336 54.5,-336 315.5,-336 315.5,-336 321.5,-336 327.5,-342 327.5,-348 327.5,-348 327.5,-360 327.5,-360 327.5,-366 321.5,-372 315.5,-372"/>
<text text-anchor="middle" x="185" y="-351.2" font-family="Arial" font-size="11.00">Unit / integration / architecture / security / browser / IaC</text>
</g>
<!-- wf&#45;&gt;checks -->
<g id="edge2" class="edge">
<title>wf&#45;&gt;checks</title>
<path fill="none" stroke="#475569" stroke-width="1.1" d="M185,-408.96C185,-408.96 185,-379.59 185,-379.59"/>
<polygon fill="#475569" stroke="#475569" stroke-width="1.1" points="187.63,-379.59 185,-372.09 182.38,-379.59 187.63,-379.59"/>
</g>
<!-- res -->
<g id="node4" class="node">
<title>res</title>
<path fill="#fef3c7" stroke="#334155" stroke-width="1.2" d="M172.5,-245C172.5,-245 103.5,-245 103.5,-245 97.5,-245 91.5,-239 91.5,-233 91.5,-233 91.5,-221 91.5,-221 91.5,-215 97.5,-209 103.5,-209 103.5,-209 172.5,-209 172.5,-209 178.5,-209 184.5,-215 184.5,-221 184.5,-221 184.5,-233 184.5,-233 184.5,-239 178.5,-245 172.5,-245"/>
<text text-anchor="middle" x="138" y="-224.2" font-family="Arial" font-size="11.00">Provider status</text>
</g>
<!-- checks&#45;&gt;res -->
<g id="edge3" class="edge">
<title>checks&#45;&gt;res</title>
<path fill="none" stroke="#475569" stroke-width="1.1" d="M130.25,-335.8C130.25,-335.8 130.25,-252.66 130.25,-252.66"/>
<polygon fill="#475569" stroke="#475569" stroke-width="1.1" points="132.88,-252.66 130.25,-245.16 127.63,-252.66 132.88,-252.66"/>
</g>
<!-- arts -->
<g id="node5" class="node">
<title>arts</title>
<polygon fill="#f1f5f9" stroke="#334155" stroke-width="1.2" points="453,-299 450,-303 429,-303 426,-299 169,-299 169,-263 453,-263 453,-299"/>
<text text-anchor="middle" x="311" y="-278.2" font-family="Arial" font-size="11.00">Logs, TRX/JUnit, coverage, screenshots, SBOM, plans</text>
</g>
<!-- checks&#45;&gt;arts -->
<g id="edge4" class="edge">
<title>checks&#45;&gt;arts</title>
<path fill="none" stroke="#475569" stroke-width="1.1" d="M248.25,-335.96C248.25,-335.96 248.25,-306.59 248.25,-306.59"/>
<polygon fill="#475569" stroke="#475569" stroke-width="1.1" points="250.88,-306.59 248.25,-299.09 245.63,-306.59 250.88,-306.59"/>
</g>
<!-- gate -->
<g id="node7" class="node">
<title>gate</title>
<path fill="#ffedd5" stroke="#334155" stroke-width="1.2" d="M157.13,-116.24C157.13,-116.24 59.51,-101.76 59.51,-101.76 53.57,-100.88 53.57,-99.12 59.51,-98.24 59.51,-98.24 157.13,-83.76 157.13,-83.76 163.06,-82.88 174.94,-82.88 180.87,-83.76 180.87,-83.76 278.49,-98.24 278.49,-98.24 284.43,-99.12 284.43,-100.88 278.49,-101.76 278.49,-101.76 180.87,-116.24 180.87,-116.24 174.94,-117.12 163.06,-117.12 157.13,-116.24"/>
<text text-anchor="middle" x="169" y="-97.2" font-family="Arial" font-size="11.00">Evidence classification</text>
</g>
<!-- res&#45;&gt;gate -->
<g id="edge6" class="edge">
<title>res&#45;&gt;gate</title>
<path fill="none" stroke="#475569" stroke-width="1.1" d="M138,-208.8C138,-208.8 138,-120.99 138,-120.99"/>
<polygon fill="#475569" stroke="#475569" stroke-width="1.1" points="140.63,-120.99 138,-113.49 135.38,-120.99 140.63,-120.99"/>
</g>
<!-- prov -->
<g id="node6" class="node">
<title>prov</title>
<path fill="#fce7f3" stroke="#334155" stroke-width="1.2" d="M378.5,-191C378.5,-191 199.5,-191 199.5,-191 193.5,-191 187.5,-185 187.5,-179 187.5,-179 187.5,-167 187.5,-167 187.5,-161 193.5,-155 199.5,-155 199.5,-155 378.5,-155 378.5,-155 384.5,-155 390.5,-161 390.5,-167 390.5,-167 390.5,-179 390.5,-179 390.5,-185 384.5,-191 378.5,-191"/>
<text text-anchor="middle" x="289" y="-176.2" font-family="Arial" font-size="11.00">Provenance fields</text>
<text text-anchor="middle" x="289" y="-164.2" font-family="Arial" font-size="11.00">producer, run, commit, env, time, hash</text>
</g>
<!-- arts&#45;&gt;prov -->
<g id="edge5" class="edge">
<title>arts&#45;&gt;prov</title>
<path fill="none" stroke="#475569" stroke-width="1.1" d="M289,-262.68C289,-262.68 289,-198.55 289,-198.55"/>
<polygon fill="#475569" stroke="#475569" stroke-width="1.1" points="291.63,-198.55 289,-191.05 286.38,-198.55 291.63,-198.55"/>
</g>
<!-- prov&#45;&gt;gate -->
<g id="edge7" class="edge">
<title>prov&#45;&gt;gate</title>
<path fill="none" stroke="#475569" stroke-width="1.1" d="M238.97,-154.96C238.97,-154.96 238.97,-115.14 238.97,-115.14"/>
<polygon fill="#475569" stroke="#475569" stroke-width="1.1" points="241.59,-115.14 238.97,-107.64 236.34,-115.14 241.59,-115.14"/>
</g>
<!-- proved -->
<g id="node8" class="node">
<title>proved</title>
<path fill="#dcfce7" stroke="#334155" stroke-width="1.2" d="M126,-36C126,-36 12,-36 12,-36 6,-36 0,-30 0,-24 0,-24 0,-12 0,-12 0,-6 6,0 12,0 12,0 126,0 126,0 132,0 138,-6 138,-12 138,-12 138,-24 138,-24 138,-30 132,-36 126,-36"/>
<text text-anchor="middle" x="69" y="-21.2" font-family="Arial" font-size="11.00">PROVED</text>
<text text-anchor="middle" x="69" y="-9.2" font-family="Arial" font-size="11.00">current and reproducible</text>
</g>
<!-- gate&#45;&gt;proved -->
<g id="edge8" class="edge">
<title>gate&#45;&gt;proved</title>
<path fill="none" stroke="#475569" stroke-width="1.1" d="M92.78,-93.29C92.78,-93.29 92.78,-43.82 92.78,-43.82"/>
<polygon fill="#475569" stroke="#475569" stroke-width="1.1" points="95.41,-43.82 92.78,-36.32 90.16,-43.82 95.41,-43.82"/>
<text text-anchor="middle" x="142" y="-56.8" font-family="Arial" font-size="9.00">scope + artifacts + hashes complete</text>
</g>
<!-- partial -->
<g id="node9" class="node">
<title>partial</title>
<path fill="#fee2e2" stroke="#334155" stroke-width="1.2" d="M523.5,-36C523.5,-36 172.5,-36 172.5,-36 166.5,-36 160.5,-30 160.5,-24 160.5,-24 160.5,-12 160.5,-12 160.5,-6 166.5,0 172.5,0 172.5,0 523.5,0 523.5,0 529.5,0 535.5,-6 535.5,-12 535.5,-12 535.5,-24 535.5,-24 535.5,-30 529.5,-36 523.5,-36"/>
<text text-anchor="middle" x="348" y="-15.2" font-family="Arial" font-size="11.00">PARTIAL / IMPLEMENTED_NOT_PROVED / BLOCKED / HISTORICAL</text>
</g>
<!-- gate&#45;&gt;partial -->
<g id="edge9" class="edge">
<title>gate&#45;&gt;partial</title>
<path fill="none" stroke="#475569" stroke-width="1.1" d="M225.47,-90.27C225.47,-90.27 225.47,-43.59 225.47,-43.59"/>
<polygon fill="#475569" stroke="#475569" stroke-width="1.1" points="228.09,-43.59 225.47,-36.09 222.84,-43.59 228.09,-43.59"/>
<text text-anchor="middle" x="368" y="-56.8" font-family="Arial" font-size="9.00">otherwise</text>
</g>
</g>
</svg>
