<?xml version="1.0" encoding="UTF-8" standalone="no"?>
<!DOCTYPE svg PUBLIC "-//W3C//DTD SVG 1.1//EN"
 "http://www.w3.org/Graphics/SVG/1.1/DTD/svg11.dtd">
<!-- Generated by graphviz version 2.42.4 (0)
 -->
<!-- Title: G Pages: 1 -->
<svg width="520pt" height="516pt"
 viewBox="0.00 0.00 520.00 516.00" xmlns="http://www.w3.org/2000/svg" xmlns:xlink="http://www.w3.org/1999/xlink">
<g id="graph0" class="graph" transform="scale(1 1) rotate(0) translate(18 498)">
<title>G</title>
<polygon fill="white" stroke="transparent" points="-18,18 -18,-498 502,-498 502,18 -18,18"/>
<!-- pipeline -->
<g id="node1" class="node">
<title>pipeline</title>
<path fill="#e0f2fe" stroke="#334155" stroke-width="1.2" d="M142,-480C142,-480 28,-480 28,-480 22,-480 16,-474 16,-468 16,-468 16,-456 16,-456 16,-450 22,-444 28,-444 28,-444 142,-444 142,-444 148,-444 154,-450 154,-456 154,-456 154,-468 154,-468 154,-474 148,-480 142,-480"/>
<text text-anchor="middle" x="85" y="-465.2" font-family="Arial" font-size="11.00">Pipeline</text>
<text text-anchor="middle" x="85" y="-453.2" font-family="Arial" font-size="11.00">read pipeline + evidence</text>
</g>
<!-- mission -->
<g id="node7" class="node">
<title>mission</title>
<path fill="#f8fafc" stroke="#334155" stroke-width="1.2" d="M428,-300C428,-300 357,-300 357,-300 351,-300 345,-294 345,-288 345,-288 345,-276 345,-276 345,-270 351,-264 357,-264 357,-264 428,-264 428,-264 434,-264 440,-270 440,-276 440,-276 440,-288 440,-288 440,-294 434,-300 428,-300"/>
<text text-anchor="middle" x="392.5" y="-279.2" font-family="Arial" font-size="11.00">Mission Control</text>
</g>
<!-- pipeline&#45;&gt;mission -->
<g id="edge1" class="edge">
<title>pipeline&#45;&gt;mission</title>
<path fill="none" stroke="#475569" stroke-width="1.1" d="M154.04,-462C206.25,-462 269,-462 269,-462 269,-462 269,-290.33 269,-290.33 269,-290.33 337.25,-290.33 337.25,-290.33"/>
<polygon fill="#475569" stroke="#475569" stroke-width="1.1" points="337.25,-292.96 344.75,-290.33 337.25,-287.71 337.25,-292.96"/>
</g>
<!-- runtime -->
<g id="node8" class="node">
<title>runtime</title>
<path fill="#f8fafc" stroke="#334155" stroke-width="1.2" d="M472,-441C472,-441 313,-441 313,-441 307,-441 301,-435 301,-429 301,-429 301,-417 301,-417 301,-411 307,-405 313,-405 313,-405 472,-405 472,-405 478,-405 484,-411 484,-417 484,-417 484,-429 484,-429 484,-435 478,-441 472,-441"/>
<text text-anchor="middle" x="392.5" y="-420.2" font-family="Arial" font-size="11.00">Risk / Pipeline / Runs / Simulation</text>
</g>
<!-- pipeline&#45;&gt;runtime -->
<g id="edge7" class="edge">
<title>pipeline&#45;&gt;runtime</title>
<path fill="none" stroke="#475569" stroke-width="1.1" d="M141,-443.94C141,-436.54 141,-429.67 141,-429.67 141,-429.67 293.49,-429.67 293.49,-429.67"/>
<polygon fill="#475569" stroke="#475569" stroke-width="1.1" points="293.49,-432.29 300.99,-429.67 293.49,-427.04 293.49,-432.29"/>
</g>
<!-- sim -->
<g id="node2" class="node">
<title>sim</title>
<path fill="#dcfce7" stroke="#334155" stroke-width="1.2" d="M115.5,-407C115.5,-407 54.5,-407 54.5,-407 48.5,-407 42.5,-401 42.5,-395 42.5,-395 42.5,-383 42.5,-383 42.5,-377 48.5,-371 54.5,-371 54.5,-371 115.5,-371 115.5,-371 121.5,-371 127.5,-377 127.5,-383 127.5,-383 127.5,-395 127.5,-395 127.5,-401 121.5,-407 115.5,-407"/>
<text text-anchor="middle" x="85" y="-392.2" font-family="Arial" font-size="11.00">Sim</text>
<text text-anchor="middle" x="85" y="-380.2" font-family="Arial" font-size="11.00">run scenarios</text>
</g>
<!-- sim&#45;&gt;mission -->
<g id="edge2" class="edge">
<title>sim&#45;&gt;mission</title>
<path fill="none" stroke="#475569" stroke-width="1.1" d="M127.87,-388C172.51,-388 236,-388 236,-388 236,-388 236,-280.67 236,-280.67 236,-280.67 337.19,-280.67 337.19,-280.67"/>
<polygon fill="#475569" stroke="#475569" stroke-width="1.1" points="337.19,-283.29 344.69,-280.67 337.19,-278.04 337.19,-283.29"/>
</g>
<!-- sim&#45;&gt;runtime -->
<g id="edge8" class="edge">
<title>sim&#45;&gt;runtime</title>
<path fill="none" stroke="#475569" stroke-width="1.1" d="M85,-407.08C85,-413.11 85,-418.33 85,-418.33 85,-418.33 293.16,-418.33 293.16,-418.33"/>
<polygon fill="#475569" stroke="#475569" stroke-width="1.1" points="293.16,-420.96 300.66,-418.33 293.16,-415.71 293.16,-420.96"/>
</g>
<!-- qa -->
<g id="node3" class="node">
<title>qa</title>
<path fill="#fef3c7" stroke="#334155" stroke-width="1.2" d="M154,-339C154,-339 16,-339 16,-339 10,-339 4,-333 4,-327 4,-327 4,-315 4,-315 4,-309 10,-303 16,-303 16,-303 154,-303 154,-303 160,-303 166,-309 166,-315 166,-315 166,-327 166,-327 166,-333 160,-339 154,-339"/>
<text text-anchor="middle" x="85" y="-324.2" font-family="Arial" font-size="11.00">QA</text>
<text text-anchor="middle" x="85" y="-312.2" font-family="Arial" font-size="11.00">quality + evidence campaigns</text>
</g>
<!-- qa&#45;&gt;mission -->
<g id="edge3" class="edge">
<title>qa&#45;&gt;mission</title>
<path fill="none" stroke="#475569" stroke-width="1.1" d="M166.33,-317.5C257.58,-317.5 393,-317.5 393,-317.5 393,-317.5 393,-307.67 393,-307.67"/>
<polygon fill="#475569" stroke="#475569" stroke-width="1.1" points="395.63,-307.67 393,-300.17 390.38,-307.67 395.63,-307.67"/>
</g>
<!-- quality -->
<g id="node9" class="node">
<title>quality</title>
<path fill="#f8fafc" stroke="#334155" stroke-width="1.2" d="M470,-368C470,-368 315,-368 315,-368 309,-368 303,-362 303,-356 303,-356 303,-344 303,-344 303,-338 309,-332 315,-332 315,-332 470,-332 470,-332 476,-332 482,-338 482,-344 482,-344 482,-356 482,-356 482,-362 476,-368 470,-368"/>
<text text-anchor="middle" x="392.5" y="-347.2" font-family="Arial" font-size="11.00">Quality Runs / Evidence Explorer</text>
</g>
<!-- qa&#45;&gt;quality -->
<g id="edge9" class="edge">
<title>qa&#45;&gt;quality</title>
<path fill="none" stroke="#475569" stroke-width="1.1" d="M166.19,-335.5C166.19,-335.5 295.5,-335.5 295.5,-335.5"/>
<polygon fill="#475569" stroke="#475569" stroke-width="1.1" points="295.5,-338.13 303,-335.5 295.5,-332.88 295.5,-338.13"/>
</g>
<!-- ops -->
<g id="node4" class="node">
<title>ops</title>
<path fill="#dbeafe" stroke="#334155" stroke-width="1.2" d="M149.5,-181C149.5,-181 20.5,-181 20.5,-181 14.5,-181 8.5,-175 8.5,-169 8.5,-169 8.5,-157 8.5,-157 8.5,-151 14.5,-145 20.5,-145 20.5,-145 149.5,-145 149.5,-145 155.5,-145 161.5,-151 161.5,-157 161.5,-157 161.5,-169 161.5,-169 161.5,-175 155.5,-181 149.5,-181"/>
<text text-anchor="middle" x="85" y="-166.2" font-family="Arial" font-size="11.00">Operations</text>
<text text-anchor="middle" x="85" y="-154.2" font-family="Arial" font-size="11.00">staging plan/deploy/rollback</text>
</g>
<!-- ops&#45;&gt;mission -->
<g id="edge4" class="edge">
<title>ops&#45;&gt;mission</title>
<path fill="none" stroke="#475569" stroke-width="1.1" d="M161.51,-169C240.41,-169 352,-169 352,-169 352,-169 352,-256.34 352,-256.34"/>
<polygon fill="#475569" stroke="#475569" stroke-width="1.1" points="349.38,-256.34 352,-263.84 354.63,-256.34 349.38,-256.34"/>
</g>
<!-- deploy -->
<g id="node10" class="node">
<title>deploy</title>
<path fill="#f8fafc" stroke="#334155" stroke-width="1.2" d="M468.5,-132C468.5,-132 316.5,-132 316.5,-132 310.5,-132 304.5,-126 304.5,-120 304.5,-120 304.5,-108 304.5,-108 304.5,-102 310.5,-96 316.5,-96 316.5,-96 468.5,-96 468.5,-96 474.5,-96 480.5,-102 480.5,-108 480.5,-108 480.5,-120 480.5,-120 480.5,-126 474.5,-132 468.5,-132"/>
<text text-anchor="middle" x="392.5" y="-111.2" font-family="Arial" font-size="11.00">Deployments / Cloud Resources</text>
</g>
<!-- ops&#45;&gt;deploy -->
<g id="edge10" class="edge">
<title>ops&#45;&gt;deploy</title>
<path fill="none" stroke="#475569" stroke-width="1.1" d="M161.6,-157C231.84,-157 325,-157 325,-157 325,-157 325,-139.99 325,-139.99"/>
<polygon fill="#475569" stroke="#475569" stroke-width="1.1" points="327.63,-139.99 325,-132.49 322.38,-139.99 327.63,-139.99"/>
</g>
<!-- appr -->
<g id="node5" class="node">
<title>appr</title>
<path fill="#fde68a" stroke="#334155" stroke-width="1.2" d="M145,-271C145,-271 25,-271 25,-271 19,-271 13,-265 13,-259 13,-259 13,-247 13,-247 13,-241 19,-235 25,-235 25,-235 145,-235 145,-235 151,-235 157,-241 157,-247 157,-247 157,-259 157,-259 157,-265 151,-271 145,-271"/>
<text text-anchor="middle" x="85" y="-256.2" font-family="Arial" font-size="11.00">ReleaseApprover</text>
<text text-anchor="middle" x="85" y="-244.2" font-family="Arial" font-size="11.00">production/destroy review</text>
</g>
<!-- appr&#45;&gt;mission -->
<g id="edge5" class="edge">
<title>appr&#45;&gt;mission</title>
<path fill="none" stroke="#475569" stroke-width="1.1" d="M157.1,-268.67C157.1,-268.67 337.28,-268.67 337.28,-268.67"/>
<polygon fill="#475569" stroke="#475569" stroke-width="1.1" points="337.28,-271.29 344.78,-268.67 337.28,-266.04 337.28,-271.29"/>
</g>
<!-- approvals -->
<g id="node11" class="node">
<title>approvals</title>
<path fill="#f8fafc" stroke="#334155" stroke-width="1.2" d="M415,-232C415,-232 370,-232 370,-232 364,-232 358,-226 358,-220 358,-220 358,-208 358,-208 358,-202 364,-196 370,-196 370,-196 415,-196 415,-196 421,-196 427,-202 427,-208 427,-208 427,-220 427,-220 427,-226 421,-232 415,-232"/>
<text text-anchor="middle" x="392.5" y="-211.2" font-family="Arial" font-size="11.00">Approvals</text>
</g>
<!-- appr&#45;&gt;approvals -->
<g id="edge11" class="edge">
<title>appr&#45;&gt;approvals</title>
<path fill="none" stroke="#475569" stroke-width="1.1" d="M157.21,-249.5C248.25,-249.5 393,-249.5 393,-249.5 393,-249.5 393,-239.67 393,-239.67"/>
<polygon fill="#475569" stroke="#475569" stroke-width="1.1" points="395.63,-239.67 393,-232.17 390.38,-239.67 395.63,-239.67"/>
</g>
<!-- admin -->
<g id="node6" class="node">
<title>admin</title>
<path fill="#fce7f3" stroke="#334155" stroke-width="1.2" d="M158,-90C158,-90 12,-90 12,-90 6,-90 0,-84 0,-78 0,-78 0,-66 0,-66 0,-60 6,-54 12,-54 12,-54 158,-54 158,-54 164,-54 170,-60 170,-66 170,-66 170,-78 170,-78 170,-84 164,-90 158,-90"/>
<text text-anchor="middle" x="85" y="-75.2" font-family="Arial" font-size="11.00">Admin</text>
<text text-anchor="middle" x="85" y="-63.2" font-family="Arial" font-size="11.00">users, roles, app administration</text>
</g>
<!-- admin&#45;&gt;mission -->
<g id="edge6" class="edge">
<title>admin&#45;&gt;mission</title>
<path fill="none" stroke="#475569" stroke-width="1.1" d="M170.13,-63C188.74,-63 203,-63 203,-63 203,-63 203,-266.33 203,-266.33 203,-266.33 337.18,-266.33 337.18,-266.33"/>
<polygon fill="#475569" stroke="#475569" stroke-width="1.1" points="337.18,-268.96 344.68,-266.33 337.18,-263.71 337.18,-268.96"/>
</g>
<!-- admin&#45;&gt;deploy -->
<g id="edge13" class="edge">
<title>admin&#45;&gt;deploy</title>
<path fill="none" stroke="#475569" stroke-width="1.1" stroke-dasharray="5,2" d="M170.12,-81C234.18,-81 311,-81 311,-81 311,-81 311,-88.46 311,-88.46"/>
<polygon fill="#475569" stroke="#475569" stroke-width="1.1" points="308.38,-88.46 311,-95.96 313.63,-88.46 308.38,-88.46"/>
<text text-anchor="middle" x="235.5" y="-74.8" font-family="Arial" font-size="9.00">read only by default</text>
</g>
<!-- users -->
<g id="node12" class="node">
<title>users</title>
<path fill="#f8fafc" stroke="#334155" stroke-width="1.2" d="M455.5,-36C455.5,-36 329.5,-36 329.5,-36 323.5,-36 317.5,-30 317.5,-24 317.5,-24 317.5,-12 317.5,-12 317.5,-6 323.5,0 329.5,0 329.5,0 455.5,0 455.5,0 461.5,0 467.5,-6 467.5,-12 467.5,-12 467.5,-24 467.5,-24 467.5,-30 461.5,-36 455.5,-36"/>
<text text-anchor="middle" x="392.5" y="-15.2" font-family="Arial" font-size="11.00">User &amp; Role Administration</text>
</g>
<!-- admin&#45;&gt;users -->
<g id="edge12" class="edge">
<title>admin&#45;&gt;users</title>
<path fill="none" stroke="#475569" stroke-width="1.1" d="M170.39,-72C261.54,-72 393,-72 393,-72 393,-72 393,-43.78 393,-43.78"/>
<polygon fill="#475569" stroke="#475569" stroke-width="1.1" points="395.63,-43.78 393,-36.28 390.38,-43.78 395.63,-43.78"/>
</g>
</g>
</svg>
